# xmcd
#
# Track frame offsets: 
#        150
#        24037
#        50202
#
# Disc length: 955 seconds
#
# Revision: 0
# Processed by: cddbd v1.5.2PL0 Copyright (c) Steve Scherf et al.
# Submitted via: ExactAudioCopy v0.99pb4
#
DISCID=1c03b903
DTITLE=John Lee Hooker - Face to Face - 3 Track Sampler
DYEAR=2003
DGENRE=Blues
TTITLE0=Turn Over A New Leaf
TTITLE1=Face To Face
TTITLE2=Dimples
EXTD=
EXTT0=
EXTT1=
EXTT2=
PLAYORDER=
